<?xml version="1.0" encoding="utf-8"?>
<!-- Generator: Avocode 2.6.0 - http://avocode.com -->
<svg height="40" width="40" xmlns:xlink="http://www.w3.org/1999/xlink" xmlns="http://www.w3.org/2000/svg" viewBox="0 0 40 40">
    <path stroke-linejoin="miter" stroke-linecap="butt" stroke-width="2" stroke="#b2bcca" fill="#ffffff" fill-rule="evenodd" d="M 20 0 C 31.05 0 40 8.95 40 20 C 40 31.05 31.05 40 20 40 C 8.95 40 0 31.05 0 20 C 0 8.95 8.95 0 20 0 Z" />
    <path fill="#b2bcca" fill-rule="evenodd" d="M 14.07 11.84 C 15.3 11.84 16.3 12.84 16.3 14.07 C 16.3 15.3 15.3 16.3 14.07 16.3 C 12.84 16.3 11.84 15.3 11.84 14.07 C 11.84 12.84 12.84 11.84 14.07 11.84 Z" />
    <path fill="#b2bcca" fill-rule="evenodd" d="M 25.93 11.84 C 27.16 11.84 28.16 12.84 28.16 14.07 C 28.16 15.3 27.16 16.3 25.93 16.3 C 24.7 16.3 23.7 15.3 23.7 14.07 C 23.7 12.84 24.7 11.84 25.93 11.84 Z" />
    <path stroke-linejoin="miter" stroke-linecap="butt" stroke-width="2" stroke="#b2bcca" fill="none" fill-rule="evenodd" d="M 11.85 22.96 C 11.85 22.96 13.23 28.15 20 28.15 C 26.44 28.15 28.15 22.96 28.15 22.96" />
</svg>