<?xml version="1.0" encoding="utf-8"?>
<!-- Generator: Avocode 2.6.0 - http://avocode.com -->
<svg height="40" width="40" xmlns:xlink="http://www.w3.org/1999/xlink" xmlns="http://www.w3.org/2000/svg" viewBox="0 0 40 40">
    <path stroke-linejoin="miter" stroke-linecap="butt" stroke-width="2" stroke="#b2bcca" fill="none" fill-rule="evenodd" d="M 20 0 C 31.04 0 40 8.95 40 20 C 40 31.05 31.04 40 20 40 C 8.95 40 0 31.05 0 20 C 0 8.95 8.95 0 20 0 Z" />
    <path fill="#b2bcca" fill-rule="evenodd" d="M 28 28 C 28 28 12 28 12 28 C 10.89 28 10 27.1 10 26 C 10 26 10 17.63 10 17.63 C 10 16.53 10.89 15.63 12 15.63 C 12 15.63 20.04 15.63 20.04 15.63 C 20.25 14.15 21.51 13 23.06 13 C 23.06 13 28 13 28 13 C 29.1 13 30 13.9 30 15 C 30 15 30 15.63 30 15.63 C 30 15.63 30 16.53 30 16.53 C 30 16.53 30 26 30 26 C 30 27.1 29.1 28 28 28 Z" />
</svg>