<?xml version="1.0" encoding="utf-8"?>
<!-- Generator: Adobe Illustrator 19.0.0, SVG Export Plug-In . SVG Version: 6.00 Build 0)  -->
<svg version="1.1" id="Publication_1_" xmlns="http://www.w3.org/2000/svg" xmlns:xlink="http://www.w3.org/1999/xlink" x="0px"
	 y="0px" viewBox="-277 400.9 40 40" style="enable-background:new -277 400.9 40 40;" xml:space="preserve">
<style type="text/css">
	.st0{display:none;}
	.st1{display:inline;fill:#FFFFFF;}
	.st2{fill:#B2BCCA;}
	.st3{clip-path:url(#SVGID_2_);fill:#B2BCCA;}
</style>
<g id="Btn">
	<g class="st0">
		<path class="st1" d="M-257,439.9c-10.5,0-19-8.5-19-19s8.5-19,19-19s19,8.5,19,19S-246.5,439.9-257,439.9z"/>
	</g>
	<g>
		<path class="st2" d="M-257,402.9c9.9,0,18,8.1,18,18c0,9.9-8.1,18-18,18c-9.9,0-18-8.1-18-18C-275,411-266.9,402.9-257,402.9
			 M-257,400.9c-11,0-20,9-20,20s9,20,20,20s20-9,20-20S-246,400.9-257,400.9L-257,400.9z"/>
	</g>
</g>
<g>
	<g>
		<defs>
			<rect id="SVGID_1_" x="-271" y="412.6" width="26.5" height="19"/>
		</defs>
		<clipPath id="SVGID_2_">
			<use xlink:href="#SVGID_1_"  style="overflow:visible;"/>
		</clipPath>
		<path class="st3" d="M-253,417l4.5-4.5v9L-253,417z M-248.5,421.5"/>
		<path class="st3" d="M-247.5,415.5v-3l3,3H-247.5z M-244.5,415.5"/>
		<path class="st3" d="M-258.2,425.4l3.3,2.9l-3.3,3.3V425.4z M-258.2,431.6"/>
		<path class="st3" d="M-271.1,413.3h11.9l10.4,9.6l-5.1,4.5L-271.1,413.3z M-253.9,427.3"/>
	</g>
</g>
</svg>
